<?xml version="1.0" encoding="UTF-8" standalone="no"?>
<svg
   id="svg289"
   version="1.1"
   viewBox="0 0 12470.7 5501.4999"
   sodipodi:docname="amadeus-LOGO.svg"
   width="12470.7"
   height="5501.5"
   inkscape:version="1.4.3 (0d15f75, 2025-12-25)"
   xmlns:inkscape="http://www.inkscape.org/namespaces/inkscape"
   xmlns:sodipodi="http://sodipodi.sourceforge.net/DTD/sodipodi-0.dtd"
   xmlns="http://www.w3.org/2000/svg"
   xmlns:svg="http://www.w3.org/2000/svg">
  <!-- Generator: Adobe Illustrator 30.1.0, SVG Export Plug-In . SVG Version: 2.1.1 Build 136)  -->
  <defs
     id="defs1">
    <style
       id="style1">
      .st0 {
        fill: none;
      }

      .st1 {
        fill: #595958;
      }

      .st2 {
        fill: #d81219;
      }
    </style>
  </defs>
  <sodipodi:namedview
     id="namedview289"
     bordercolor="#000000"
     borderopacity="0.25"
     inkscape:current-layer="g288"
     inkscape:cx="8335.0213"
     inkscape:cy="3579.7281"
     inkscape:deskcolor="#d1d1d1"
     inkscape:document-units="mm"
     inkscape:pagecheckerboard="0"
     inkscape:pageopacity="0.0"
     inkscape:showpageshadow="2"
     inkscape:window-height="1009"
     inkscape:window-maximized="1"
     inkscape:window-width="1920"
     inkscape:window-x="1912"
     inkscape:window-y="-8"
     inkscape:zoom="0.056568542"
     pagecolor="#ffffff" />
  <g
     id="g288"
     inkscape:groupmode="layer"
     inkscape:label="0"
     transform="translate(-851.4,-3743.8)">
    <path
       id="path50"
       class="st2"
       d="m 8077.1,3743.8 -742.9,843.3 373.3,1699.9 -1690.4,212.2 -284.3,297.5 H 8952.5 L 8077,3743.8 Z" />
    <path
       id="path51"
       class="st0"
       d="m 8077.2,3743.8 -3315.8,3764" />
    <path
       id="path52"
       class="st1"
       d="m 4761.4,7507.9 3315.8,-3764 -960.8,68.2 z" />
    <path
       id="path74"
       class="st2"
       d="m 1627.7,8095.2 c 3.2,25.8 6.4,54.8 9.7,83.8 6.4,29 9.7,58 16.1,83.8 v 0 c 0,0 64.4,273.8 64.4,273.8 l 93.5,399.5 63.7,277.1 h 461.4 L 1956.4,7869.8 v 0 c -9.7,-35.5 -29,-64.4 -58,-87 -29,-22.6 -61.2,-32.2 -96.6,-32.2 v 0 c 0,0 -415.6,0 -415.6,0 v 0 c -35.4,0 -67.7,9.7 -96.6,32.3 -29,22.6 -48.3,51.5 -58,87 v 0 c 0,0 -380.2,1343.4 -380.2,1343.4 h 467.2 l 74.1,-315.8 c 0,0 309.2,0 309.2,0 l -74.1,-322.1 H 1470 l 74.1,-312.5 v 0 c 6.4,-25.8 12.9,-54.7 16.1,-83.7 3.2,-29 9.7,-58 9.7,-83.8 v 0 c 0,0 58,0 58,0" />
    <path
       id="path104"
       class="st2"
       d="m 2806.8,8311.1 c 58,-61.2 112.8,-106.3 170.7,-135.3 58,-32.2 128.9,-48.3 209.4,-48.3 80.5,0 170.7,25.8 222.3,74.1 22.6,22.6 38.7,51.5 51.5,83.8 48.3,-48.3 96.6,-83.8 145,-109.5 61.2,-32.2 128.9,-48.3 209.4,-48.3 80.5,0 177.2,25.8 228.7,74.1 51.5,51.5 77.3,122.4 77.3,222.3 v 0 792.5 h -447.8 v -650.8 0 c 0,-22.6 -6.4,-41.9 -16.1,-48.3 -9.7,-9.7 -29,-12.9 -54.8,-12.9 v 0 c 0,0 -38.6,0 -38.6,0 v 0 c -12.9,0 -29,6.4 -48.3,9.7 -9.7,0 -22.6,6.4 -35.4,12.9 v 0 c 0,0 0,689.4 0,689.4 h -428.5 v -650.8 0 c 0,-22.6 -6.4,-41.9 -16.1,-48.3 -12.9,-9.7 -29,-12.9 -54.8,-12.9 v 0 c 0,0 -38.6,0 -38.6,0 v 0 c -12.9,0 -32.2,6.4 -51.5,9.6 -9.7,0 -19.3,6.4 -29,9.7 v 0 692.7 h -441.4 c 0,0 0,-1059.9 0,-1059.9 0,0 347.9,0 347.9,0 l 38.7,154.7" />
    <path
       id="path139"
       class="st2"
       d="m 4301.6,8175.8 c 54.8,-9.7 116,-19.3 190.1,-25.8 74.1,-6.4 148.2,-12.9 222.3,-19.3 74.1,-6.4 135.3,-6.4 190.1,-6.4 99.9,0 183.6,12.9 254.5,38.7 67.7,25.8 119.2,70.9 157.9,132.1 35.4,61.2 54.8,148.2 54.8,257.7 v 0 c 0,0 0,657.2 0,657.2 l -3.2,6.4 h -354.4 l -29,-103.1 c 0,0 -64.4,-273.8 -64.4,-273.8 0,0 0,-61.2 0,-61.2 h -167.5 v 0 c -25.8,0 -48.3,6.4 -61.2,19.3 -12.9,12.9 -19.3,29 -19.3,48.3 v 0 35.4 0 c 0,19.4 6.4,35.5 22.6,45.1 16.1,12.9 35.4,19.3 67.7,19.3 32.2,0 54.8,-6.4 83.8,-16.1 v 0 c 0,0 51.5,215.9 51.5,215.9 v 0 c -29,25.8 -64.4,45.1 -103.1,64.4 -51.5,25.8 -116,35.4 -190.1,35.4 -74.1,0 -125.6,-12.9 -180.4,-35.4 -54.8,-22.6 -99.9,-54.8 -132.1,-99.9 -32.2,-45.1 -48.3,-99.9 -48.3,-167.5 v 0 c 0,0 0,-106.3 0,-106.3 v 0 c 0,-83.8 32.2,-151.4 93.4,-199.7 61.2,-48.3 148.2,-74.1 254.5,-74.1 v 0 h 331.9 v -9.7 0 c 0,-35.4 -9.7,-64.4 -29,-80.5 -16.1,-16.1 -48.3,-25.8 -96.6,-25.8 v 0 c 0,0 -203,0 -203,0 v 0 c -80.5,0 -164.3,3.2 -254.5,9.6 v 0 c 0,0 -38.6,-280.3 -38.6,-280.3" />
    <path
       id="path168"
       class="st2"
       d="m 6157.2,8874.9 51.6,254.5 v 0 c -16.1,12.9 -32.2,29 -51.5,41.9 -64.4,45.1 -151.4,64.4 -264.2,64.4 -112.8,0 -235.2,-48.3 -296.4,-148.2 -58,-99.9 -87,-238.4 -87,-418.8 0,-180.4 16.1,-257.7 45.1,-335 29,-77.3 74.1,-132.1 135.3,-164.3 61.2,-32.2 135.3,-45.1 222.3,-45.1 87,0 154.6,12.9 225.5,35.4 35.4,12.9 67.7,29 99.9,51.5 0,-22.6 0,-48.3 -3.2,-74.1 0,-51.5 -3.2,-106.3 -3.2,-154.6 v 0 -251.3 H 6676 v 1481.9 l -6.4,3.2 h -354.4 l -19.3,-96.7 c 0,0 -70.9,-357.6 -70.9,-357.6 v -315.7 0 c -9.7,-3.2 -22.6,-6.5 -32.2,-12.9 -25.8,-9.7 -61.2,-16.1 -106.3,-16.1 -45.1,0 -54.8,6.4 -70.9,16.1 -16.1,9.7 -32.2,32.2 -38.7,67.7 -9.7,35.4 -12.9,90.2 -12.9,167.5 0,77.3 3.2,112.8 12.9,141.7 6.4,29 19.3,51.5 38.7,58 16.1,9.7 38.7,12.9 67.7,12.9 29,0 54.8,0 74.1,-6.4" />
    <path
       id="path198"
       class="st2"
       d="m 7896.9,8874.9 c -90.2,9.7 -174,19.3 -251.3,19.3 -77.3,3.2 -128.9,3.2 -180.4,3.2 -51.5,0 -93.4,-6.4 -119.2,-22.6 -29,-16.1 -45.1,-41.9 -54.8,-77.3 v 0 c 0,0 0,-16.1 0,-16.1 l -9.7,-209.4 v 0 c 3.2,-32.2 6.4,-61.2 9.7,-80.5 6.4,-32.2 19.3,-54.8 41.9,-64.4 22.6,-12.9 51.5,-12.9 93.4,-12.9 41.9,0 70.9,6.4 87,16.1 16.1,9.7 25.8,29 25.8,64.4 0,35.4 -6.4,58 -19.3,67.7 -12.9,9.7 -41.9,12.9 -90.2,12.9 v 0 c 0,0 -54.8,0 -54.8,0 v 202.9 h 177.2 v 0 c 154.6,0 260.9,-19.3 322.2,-64.4 58,-41.9 87,-112.8 87,-212.6 0,-122.4 -41.9,-215.8 -125.6,-280.3 -80.5,-64.4 -277.1,-96.6 -422,-96.6 -145,0 -264.2,19.3 -351.2,54.8 -87,38.7 -151.4,96.6 -190.1,180.4 -38.7,80.5 -58,209.4 -58,331.8 0,122.4 19.3,222.3 58,302.8 38.7,80.5 99.9,141.8 190.1,183.6 90.2,41.9 206.2,61.2 354.4,61.2 148.2,0 125.6,-3.2 186.9,-9.7 58,-6.4 116,-16.1 174,-29 54.8,-12.9 109.5,-32.2 157.9,-58 v 0 c 0,0 -38.6,-267.4 -38.6,-267.4" />
    <path
       id="path213"
       class="st2"
       d="m 8541.2,8807.2 c 0,22.6 6.4,38.7 19.3,48.3 12.9,9.6 32.2,16.1 58,16.1 25.8,0 58,0 87,-6.4 19.3,0 41.9,-9.7 70.9,-19.3 v 0 c 0,0 0,-689.4 0,-689.4 h 447.8 v 1059.9 c 0,0 -351.1,0 -351.2,0 l -38.7,-154.7 v 0 c -67.7,61.2 -135.3,106.3 -199.7,135.3 -70.9,32.2 -145,48.3 -225.5,48.3 -209.4,0 -312.5,-99.9 -312.5,-296.4 v 0 c 0,0 0,-792.5 0,-792.5 h 444.5 v 650.8" />
    <path
       id="path246"
       class="st2"
       d="m 10387.2,9100.3 v 3.2 0 c 35.4,-51.5 51.5,-116 51.5,-209.4 0,-93.4 -22.5,-164.3 -67.7,-209.4 -45.1,-45.1 -116,-83.8 -209.4,-109.5 v 0 c 0,0 -244.8,-61.2 -244.8,-61.2 v 0 c -51.5,-16.1 -83.8,-25.8 -99.9,-29 -16.1,-3.2 -25.8,-12.9 -25.8,-22.6 0,-9.7 3.2,-19.3 9.7,-19.3 6.4,-6.4 22.6,-6.4 45.1,-6.4 v 0 c 0,0 103.1,0 103.1,0 h 415.6 c 0,0 29,-257.8 29,-257.8 v 0 c -45.1,-12.9 -96.6,-19.3 -161.1,-25.7 -64.4,-6.4 -128.9,-12.9 -196.5,-16.1 -64.4,-6.4 -58,-6.4 -183.6,-6.4 -125.6,0 -222.3,9.7 -293.2,35.4 -70.9,25.8 -122.4,61.2 -151.4,106.3 -29,48.3 -45.1,112.8 -45.1,167.5 0,54.7 9.7,103.1 22.6,148.2 12.9,45.1 41.9,83.8 80.5,116 41.9,32.2 99.9,61.2 177.2,83.8 v 0 c 0,0 232,64.4 232,64.4 v 0 c 54.8,16.1 90.2,29 109.5,32.2 19.3,3.2 29,16.1 29,25.8 0,9.7 -6.4,16.1 -16.1,22.6 -9.7,6.4 -32.2,9.7 -64.4,9.7 v 0 c 0,0 -151.4,0 -151.4,0 0,0 -376.9,0 -376.9,0 0,0 -29,257.7 -29,257.7 v 0 c 116,19.3 225.5,29 325.4,35.4 99.9,6.4 103.1,6.4 225.5,6.4 122.4,0 222.3,-9.7 296.4,-32.2 77.3,-22.6 128.9,-58 164.3,-109.5" />
    <path
       id="path263"
       class="st1"
       d="m 10941.3,7750.5 c -90.2,0 -164.3,22.6 -219.1,74.1 -54.8,51.5 -83.8,119.2 -83.8,209.4 v 0 c 0,0 0,1182.3 0,1182.3 h 264.2 V 8572 h 583.1 v -193.3 h -583.1 v -289.9 0 c 0,-41.9 9.7,-74.1 32.2,-93.4 22.6,-19.3 54.8,-29 96.6,-29 v 0 c 0,0 538.1,0 538.1,0 v -6.4 l 12.8,-193.3 v 0 c -64.4,-6.4 -128.9,-12.9 -203,-12.9 -70.9,-3.2 -145,-3.2 -219.1,-3.2 v 0 c 0,0 -219.1,0 -219.1,0" />
    <path
       id="path264"
       class="st1"
       d="M 12049.5,8175.8 H 11795 v 1040.6 h 254.5 z" />
    <path
       id="path280"
       class="st1"
       d="m 13064.3,8514.1 v 702.3 h 257.8 l -3.2,-3.2 v 0 -779.6 0 c 0,-190.1 -96.6,-286.7 -289.9,-286.7 -193.3,0 -154.6,16.1 -232,51.5 -74.1,32.2 -148.2,80.5 -222.3,138.5 v 0 c 0,0 -19.3,-161.1 -19.3,-161.1 H 12346 v 1040.6 h 257.7 v -728.1 0 c 64.4,-38.7 122.4,-67.6 170.7,-87 v 0 c 54.8,-22.6 112.8,-35.4 161.1,-35.4 48.3,0 80.5,9.7 99.9,32.2 19.3,19.3 29,58 29,116" />
    <path
       id="path288"
       class="st1"
       d="m 11788.6,7802.1 c 0,-51.5 25.8,-77.3 77.3,-77.3 v 0 c 0,0 112.8,0 112.8,0 v 0 c 51.5,0 77.3,25.8 77.3,77.3 v 0 119.2 0 c 0,51.6 -25.8,77.3 -77.3,77.3 v 0 c 0,0 -112.8,0 -112.8,0 v 0 c -51.5,0 -77.3,-25.8 -77.3,-77.3 v 0 -119.2" />
  </g>
</svg>
