<svg width="711" height="231" viewBox="0 0 711 231" fill="none" xmlns="http://www.w3.org/2000/svg">
<g clip-path="url(#clip0_1092_795)">
<path d="M311.476 170.829C307.748 174.912 303.605 178.083 299.027 180.309C294.456 182.56 289.792 183.668 285.056 183.668C278.501 183.668 273.431 181.733 269.845 177.84C266.253 173.969 264.455 168.436 264.455 161.256C264.455 151.856 267.747 143.856 274.337 137.28C280.939 130.697 293.058 123.595 310.747 115.948V105.033C310.747 102.02 310.073 99.708 308.757 98.136C307.413 96.556 305.462 95.7706 302.878 95.7706C299.584 95.7706 296.991 96.5346 295.115 98.0413C293.235 99.572 292.307 101.636 292.307 104.284V109.864H268.38C268.38 109.557 268.339 109.113 268.259 108.527C268.181 107.955 268.147 107.505 268.147 107.185C268.147 98.6653 271.515 91.6813 278.236 86.2106C284.972 80.7226 293.437 77.9893 303.661 77.9893C314.34 77.9893 322.267 80.6013 327.46 85.8293C332.644 91.028 335.246 99.0346 335.246 109.864V153.185C335.246 160.008 335.439 165.963 335.847 171.048C336.231 176.145 336.787 179.913 337.495 182.332H313.733C313.097 180.977 312.597 179.389 312.253 177.591C311.892 175.769 311.627 173.507 311.476 170.829ZM310.747 156.907V130.519C302.462 134.908 296.757 138.965 293.636 142.717C290.508 146.459 288.943 150.985 288.943 156.327C288.943 159.497 289.559 161.943 290.815 163.647C292.07 165.376 293.828 166.236 296.085 166.236C298.835 166.236 301.547 165.392 304.247 163.701C306.94 162.02 309.112 159.743 310.747 156.907Z" fill="white"/>
<path d="M346.444 154.835L369.24 150.8C370.289 156.663 372.02 160.853 374.475 163.405C376.945 165.963 380.377 167.225 384.801 167.225C388.14 167.225 390.792 166.42 392.779 164.804C394.752 163.176 395.737 161.011 395.737 158.279C395.737 153.015 387.772 145.513 371.828 135.801C371.669 135.671 371.461 135.551 371.243 135.439C363.235 130.595 357.537 125.88 354.165 121.305C350.807 116.725 349.115 111.541 349.115 105.748C349.115 97.4214 352.316 90.7201 358.728 85.6227C365.136 80.5387 373.519 77.9854 383.867 77.9854C393.595 77.9854 401.456 80.3281 407.476 85.0161C413.473 89.6921 416.84 96.1134 417.552 104.269L395.281 108.527C394.405 104.243 392.94 101.047 390.916 98.9414C388.859 96.8347 386.147 95.7707 382.756 95.7707C379.605 95.7707 377.124 96.6001 375.317 98.1974C373.497 99.8201 372.612 102.007 372.612 104.733C372.612 109.189 378.147 114.948 389.237 121.995C392.236 123.973 394.565 125.511 396.219 126.589C405.041 132.504 411.075 137.695 414.336 142.165C417.587 146.651 419.227 151.701 419.227 157.261C419.227 165.671 415.992 172.369 409.54 177.44C403.068 182.476 394.524 185.011 383.893 185.011C373.756 185.011 365.341 182.355 358.691 177.032C352.024 171.748 347.936 164.34 346.444 154.835Z" fill="white"/>
<path d="M431.333 153.683V107.827C431.333 99.0346 434.669 91.8706 441.356 86.3013C448.019 80.7639 456.624 77.988 467.205 77.988C478.003 77.988 486.301 80.5653 492.085 85.6919C497.893 90.8359 500.779 98.2146 500.779 107.827V133.68H455.836V153.115C455.836 158.427 456.612 162.107 458.159 164.156C459.715 166.22 462.358 167.225 466.11 167.225C470.031 167.225 472.749 166.356 474.304 164.612C475.867 162.891 476.628 159.047 476.628 153.115V146.092H500.779V153.683C500.779 164.056 497.836 171.877 491.923 177.119C486.007 182.375 477.157 185.009 465.42 185.009C454.855 185.009 446.525 182.231 440.464 176.648C434.377 171.083 431.333 163.42 431.333 153.683ZM455.836 117.911H476.628V107.655C476.628 103.405 475.812 100.363 474.172 98.5359C472.548 96.6839 469.952 95.7706 466.355 95.7706C462.609 95.7706 459.916 96.6839 458.279 98.5359C456.639 100.363 455.836 103.405 455.836 107.655V117.911Z" fill="white"/>
<path d="M518.016 182.328V44.7721H541.833V117.921L563.544 80.6841H588.94L565.331 114.787L590.481 182.328H566.516L549.939 132.013L541.833 143.933V182.328H518.016Z" fill="white"/>
<path d="M597.861 103.962C597.861 96.0398 601.02 89.7345 607.375 85.0331C613.728 80.3491 622.257 77.9865 632.957 77.9865C642.727 77.9865 650.721 80.4718 656.957 85.4212C663.179 90.3625 666.281 96.7331 666.281 104.524V156.956C666.281 165.698 663.249 172.554 657.117 177.537C651.013 182.524 642.603 185.008 631.888 185.008C621.581 185.008 613.317 182.438 607.136 177.294C600.948 172.16 597.861 165.24 597.861 156.569V103.962ZM622.341 158.476C622.341 161.282 623.164 163.438 624.831 164.956C626.457 166.469 628.828 167.233 631.888 167.233C635.036 167.233 637.54 166.454 639.38 164.882C641.221 163.362 642.136 161.209 642.136 158.476V103.196C642.136 100.978 641.195 99.1745 639.304 97.8172C637.421 96.4545 634.959 95.7772 631.888 95.7772C629.065 95.7772 626.749 96.4545 624.991 97.8172C623.235 99.1745 622.341 100.978 622.341 103.196V158.476Z" fill="white"/>
<path d="M684.296 182.328H708.123V44.7748H684.296V182.328Z" fill="white"/>
<path d="M311.476 170.829C307.748 174.912 303.605 178.083 299.027 180.309C294.456 182.56 289.792 183.668 285.056 183.668C278.501 183.668 273.431 181.733 269.845 177.84C266.253 173.969 264.455 168.436 264.455 161.256C264.455 151.856 267.747 143.856 274.337 137.28C280.939 130.697 293.058 123.595 310.747 115.948V105.033C310.747 102.02 310.073 99.708 308.757 98.136C307.413 96.556 305.462 95.7706 302.878 95.7706C299.584 95.7706 296.991 96.5346 295.115 98.0413C293.235 99.572 292.307 101.636 292.307 104.284V109.864H268.38C268.38 109.557 268.339 109.113 268.259 108.527C268.181 107.955 268.147 107.505 268.147 107.185C268.147 98.6653 271.515 91.6813 278.236 86.2106C284.972 80.7226 293.437 77.9893 303.661 77.9893C314.34 77.9893 322.267 80.6013 327.46 85.8293C332.644 91.028 335.246 99.0346 335.246 109.864V153.185C335.246 160.008 335.439 165.963 335.847 171.048C336.231 176.145 336.787 179.913 337.495 182.332H313.733C313.097 180.977 312.597 179.389 312.253 177.591C311.892 175.769 311.627 173.507 311.476 170.829ZM310.747 156.907V130.519C302.462 134.908 296.757 138.965 293.636 142.717C290.508 146.459 288.943 150.985 288.943 156.327C288.943 159.497 289.559 161.943 290.815 163.647C292.07 165.376 293.828 166.236 296.085 166.236C298.835 166.236 301.547 165.392 304.247 163.701C306.94 162.02 309.112 159.743 310.747 156.907Z" fill="white"/>
<path d="M346.444 154.835L369.24 150.8C370.289 156.663 372.02 160.853 374.475 163.405C376.945 165.963 380.377 167.225 384.801 167.225C388.14 167.225 390.792 166.42 392.779 164.804C394.752 163.176 395.737 161.011 395.737 158.279C395.737 153.015 387.772 145.513 371.828 135.801C371.669 135.671 371.461 135.551 371.243 135.439C363.235 130.595 357.537 125.88 354.165 121.305C350.807 116.725 349.115 111.541 349.115 105.748C349.115 97.4214 352.316 90.7201 358.728 85.6227C365.136 80.5387 373.519 77.9854 383.867 77.9854C393.595 77.9854 401.456 80.3281 407.476 85.0161C413.473 89.6921 416.84 96.1134 417.552 104.269L395.281 108.527C394.405 104.243 392.94 101.047 390.916 98.9414C388.859 96.8347 386.147 95.7707 382.756 95.7707C379.605 95.7707 377.124 96.6001 375.317 98.1974C373.497 99.8201 372.612 102.007 372.612 104.733C372.612 109.189 378.147 114.948 389.237 121.995C392.236 123.973 394.565 125.511 396.219 126.589C405.041 132.504 411.075 137.695 414.336 142.165C417.587 146.651 419.227 151.701 419.227 157.261C419.227 165.671 415.992 172.369 409.54 177.44C403.068 182.476 394.524 185.011 383.893 185.011C373.756 185.011 365.341 182.355 358.691 177.032C352.024 171.748 347.936 164.34 346.444 154.835Z" fill="white"/>
<path d="M431.333 153.683V107.827C431.333 99.0346 434.669 91.8706 441.356 86.3013C448.019 80.7639 456.624 77.988 467.205 77.988C478.003 77.988 486.301 80.5653 492.085 85.6919C497.893 90.8359 500.779 98.2146 500.779 107.827V133.68H455.836V153.115C455.836 158.427 456.612 162.107 458.159 164.156C459.715 166.22 462.358 167.225 466.11 167.225C470.031 167.225 472.749 166.356 474.304 164.612C475.867 162.891 476.628 159.047 476.628 153.115V146.092H500.779V153.683C500.779 164.056 497.836 171.877 491.923 177.119C486.007 182.375 477.157 185.009 465.42 185.009C454.855 185.009 446.525 182.231 440.464 176.648C434.377 171.083 431.333 163.42 431.333 153.683ZM455.836 117.911H476.628V107.655C476.628 103.405 475.812 100.363 474.172 98.5359C472.548 96.6839 469.952 95.7706 466.355 95.7706C462.609 95.7706 459.916 96.6839 458.279 98.5359C456.639 100.363 455.836 103.405 455.836 107.655V117.911Z" fill="white"/>
<path d="M518.016 182.328V44.7721H541.833V117.921L563.544 80.6841H588.94L565.331 114.787L590.481 182.328H566.516L549.939 132.013L541.833 143.933V182.328H518.016Z" fill="white"/>
<path d="M597.861 103.962C597.861 96.0398 601.02 89.7345 607.375 85.0331C613.728 80.3491 622.257 77.9865 632.957 77.9865C642.727 77.9865 650.721 80.4718 656.957 85.4212C663.179 90.3625 666.281 96.7331 666.281 104.524V156.956C666.281 165.698 663.249 172.554 657.117 177.537C651.013 182.524 642.603 185.008 631.888 185.008C621.581 185.008 613.317 182.438 607.136 177.294C600.948 172.16 597.861 165.24 597.861 156.569V103.962ZM622.341 158.476C622.341 161.282 623.164 163.438 624.831 164.956C626.457 166.469 628.828 167.233 631.888 167.233C635.036 167.233 637.54 166.454 639.38 164.882C641.221 163.362 642.136 161.209 642.136 158.476V103.196C642.136 100.978 641.195 99.1745 639.304 97.8172C637.421 96.4545 634.959 95.7772 631.888 95.7772C629.065 95.7772 626.749 96.4545 624.991 97.8172C623.235 99.1745 622.341 100.978 622.341 103.196V158.476Z" fill="white"/>
<path d="M684.296 182.328H708.123V44.7748H684.296V182.328Z" fill="white"/>
<path d="M30.8422 145.186C19.6386 114.811 27.2028 80.3815 50.0918 57.4909C75.5667 32.0362 114.547 26.1775 146.108 41.9255L123.247 48.4055L187.425 54.7455L162.184 0.00420345L161.791 21.0522C119.755 -2.26112 66.3542 4.82421 31.8865 39.2802C1.91987 69.2522 -7.96398 114.312 6.68238 154.1C9.12353 160.756 16.5308 164.184 23.196 161.726C29.873 159.278 33.2944 151.87 30.8422 145.186ZM208.436 71.7816C205.547 65.2949 197.917 62.3962 191.441 65.3095C184.939 68.2042 182.041 75.8242 184.947 82.3162C198.972 113.626 192.088 150.963 167.82 175.211C141.76 201.299 102.22 206.831 70.3616 190.088L92.0001 185.719L28.5157 174.442L49.4465 230.963L51.5714 208.943C94.3361 235.536 150.008 229.442 186.031 193.439C217.795 161.663 226.804 112.774 208.436 71.7816Z" fill="white"/>
<path d="M96.9048 117.787C96.9048 127.88 88.7215 136.056 78.5996 136.056C68.5157 136.056 60.3252 127.88 60.3252 117.787C60.3252 107.673 68.5157 99.4828 78.5996 99.4828C88.7215 99.4828 96.9048 107.673 96.9048 117.787Z" fill="white"/>
<path d="M156.113 117.787C156.113 127.88 147.929 136.056 137.829 136.056C127.73 136.056 119.539 127.88 119.539 117.787C119.539 107.68 127.73 99.4828 137.829 99.4828C147.929 99.4828 156.113 107.68 156.113 117.787Z" fill="white"/>
<path d="M96.9048 117.787C96.9048 127.88 88.7215 136.056 78.5996 136.056C68.5157 136.056 60.3252 127.88 60.3252 117.787C60.3252 107.673 68.5157 99.4828 78.5996 99.4828C88.7215 99.4828 96.9048 107.673 96.9048 117.787Z" fill="white"/>
<path d="M156.113 117.787C156.113 127.88 147.929 136.056 137.829 136.056C127.73 136.056 119.539 127.88 119.539 117.787C119.539 107.68 127.73 99.4828 137.829 99.4828C147.929 99.4828 156.113 107.68 156.113 117.787Z" fill="white"/>
</g>
<defs>
<clipPath id="clip0_1092_795">
<rect width="711" height="231" fill="white"/>
</clipPath>
</defs>
</svg>
