<svg width="60" height="26" viewBox="0 0 60 26" fill="none" xmlns="http://www.w3.org/2000/svg">
<path d="M35.9016 18.1056H43.9858V21.3735H32.0029V4.59214H35.9016V18.1056ZM52.5644 14.9754H55.7387V17.9115C55.1553 18.1327 54.0131 18.3538 52.9278 18.3538C49.4173 18.3538 48.2479 16.5823 48.2479 12.9828C48.2479 9.54791 49.3604 7.5258 52.8685 7.5258C54.824 7.5258 55.934 8.13514 56.8537 9.29976L59.2814 7.08108C57.7981 4.98034 55.2121 4.34398 52.7819 4.34398C47.3233 4.34398 44.4555 7.30467 44.4555 12.9533C44.4555 18.5749 47.0439 21.6216 52.7572 21.6216C55.3778 21.6216 57.939 20.9582 59.3333 19.9877V11.8452H52.5619L52.5644 14.9754ZM13.0805 0C16.5497 0 19.8768 1.36964 22.3299 3.80761C24.7829 6.24559 26.1611 9.55219 26.1611 13C26.1611 16.4478 24.7829 19.7544 22.3299 22.1924C19.8768 24.6304 16.5497 26 13.0805 26C9.61136 26 6.28427 24.6304 3.8312 22.1924C1.37812 19.7544 0 16.4478 0 13C0 9.55219 1.37812 6.24559 3.8312 3.80761C6.28427 1.36964 9.61136 0 13.0805 0ZM20.8928 20.7789C21.9221 19.7611 22.7383 18.5508 23.2941 17.2177C23.85 15.8846 24.1346 14.4553 24.1314 13.0123V12.4177L23.5875 12.4201H16.3068V13.6339H22.8878L22.8854 13.6708C22.7123 16.1393 21.6051 18.4512 19.7866 20.1415C17.968 21.8317 15.5729 22.7749 13.083 22.7813C11.7918 22.7845 10.5127 22.5332 9.31983 22.0419C8.12696 21.5505 7.04399 20.829 6.13358 19.9189C5.21856 19.0137 4.49313 17.9373 3.9992 16.7518C3.50527 15.5664 3.25264 14.2954 3.25592 13.0123C3.25592 10.4054 4.27942 7.95332 6.13358 6.10811C7.04399 5.19891 8.12667 4.47803 9.31905 3.98714C10.5114 3.49626 11.7899 3.24509 13.0805 3.24816L13.7035 3.25553V2.03931L13.083 2.03194C10.1536 2.03519 7.34502 3.19301 5.27337 5.25145C3.20171 7.30989 2.03609 10.1009 2.03217 13.0123C2.03217 15.9459 3.18175 18.7027 5.26831 20.7789C6.29197 21.8017 7.50942 22.6127 8.85032 23.1652C10.1912 23.7176 11.629 24.0005 13.0805 23.9975C14.5329 24.0012 15.9716 23.7186 17.3134 23.1661C18.6552 22.6137 19.8734 21.8023 20.8977 20.7789M13.7035 17.5921V7.2113H12.46V18.8084H16.3068V17.5921H13.7035ZM10.5762 8.86487C10.5771 8.53605 10.4799 8.21435 10.2968 7.94051C10.1136 7.66667 9.85279 7.45302 9.54736 7.32663C9.24192 7.20023 8.90561 7.16678 8.58104 7.23051C8.25646 7.29424 7.95822 7.45229 7.7241 7.68462C7.48997 7.91696 7.33051 8.21313 7.2659 8.53562C7.2013 8.8581 7.23446 9.19239 7.36118 9.49613C7.4879 9.79987 7.70249 10.0594 7.97775 10.2418C8.25301 10.4242 8.57656 10.5214 8.90742 10.5209C9.34937 10.5202 9.77307 10.3456 10.0858 10.0353C10.3985 9.72493 10.5749 9.3041 10.5762 8.86487Z" fill="#161616"/>
</svg>
