<?xml version="1.0" encoding="utf-8"?>
<!-- Generator: Adobe Illustrator 24.2.3, SVG Export Plug-In . SVG Version: 6.00 Build 0)  -->
<svg version="1.1" id="Ebene_1" xmlns="http://www.w3.org/2000/svg" xmlns:xlink="http://www.w3.org/1999/xlink" x="0px" y="0px"
	 viewBox="0 0 1150.14 286.47" style="enable-background:new 0 0 1150.14 286.47;" xml:space="preserve">
<style type="text/css">
	.st0{fill:#0069B4;}
	.st1{fill:#727777;}
</style>
<path class="st0" d="M354.08,73.58c-2.14-1.07-9.8-4.19-16.92-4.19c-4.9,0-8.37,2.49-8.37,6.32c0,12.02,30.01,12.74,30.01,31.8
	c0,13.36-9.98,18.26-23.16,18.26c-7.39,0-14.43-2.14-16.66-2.76v-10.87c4.72,2.94,11.58,6.59,18.52,6.59c3.92,0,9.62-1.69,9.62-7.48
	c0-13.89-29.12-13.63-29.12-33.04c0-9.89,7.48-15.85,20.75-15.85c6.5,0,13,1.25,15.32,1.69V73.58z"/>
<polygon class="st0" points="374.86,78.15 362.19,78.15 362.19,72.12 397.53,72.12 397.53,78.15 384.86,78.15 384.86,124.79 
	374.86,124.79 "/>
<path class="st0" d="M400.59,98.46c0-16.11,6.49-27.17,21.99-27.17c15.42,0,21.98,11.07,21.98,27.17c0,16.11-6.56,27.18-21.98,27.18
	C407.08,125.63,400.59,114.57,400.59,98.46 M422.57,120.6c8.32,0,11.45-8.86,11.45-22.14c0-13.28-3.13-22.14-11.45-22.14
	c-8.32,0-11.45,8.85-11.45,22.14C411.12,111.74,414.25,120.6,422.57,120.6"/>
<path class="st0" d="M454.56,72.12h11.98c11.68,0,22.14,1.76,22.14,13.74c0,8.17-6.26,10.99-10.99,12.21v0.15
	c7.79,1.45,8.85,6.49,10.15,12.6l2.98,13.97h-10l-1.91-9.92c-1.91-9.62-3.36-13.13-11.22-13.13h-3.13v23.05h-10V72.12z
	 M464.56,96.17h1.98c7.1,0,12.14-1.83,12.14-9.54c0-8.4-5.95-8.93-12.14-8.93h-1.98V96.17z"/>
<path class="st0" d="M535.02,122.35c-3.36,1.3-8.55,3.28-14.89,3.28c-16.64,0-22.98-13.28-22.98-28.17
	c0-13.97,5.57-26.18,21.53-26.18c12.44,0,18.47,5.95,18.47,15.19h-11.38c0-4.12-1.3-10.15-7.71-10.15
	c-8.86,0-10.38,12.44-10.38,19.46c0,6.11,0.23,23.51,14.27,23.51c6.64,0,11.15-3.74,13.05-5.19V122.35z"/>
<polygon class="st0" points="544.18,72.12 554.18,72.12 554.18,94.18 572.5,94.18 572.5,72.12 582.5,72.12 582.5,124.79 
	572.5,124.79 572.5,100.21 554.18,100.21 554.18,124.79 544.18,124.79 "/>
<rect x="592.5" y="101.05" class="st0" width="28.4" height="8.17"/>
<path class="st0" d="M673.35,121.94c-3.92,1.51-9.98,3.83-17.37,3.83c-19.41,0-26.81-15.5-26.81-32.86c0-16.3,6.5-30.55,25.11-30.55
	c14.52,0,21.55,6.95,21.55,17.72h-13.27c0-4.81-1.51-11.85-8.99-11.85c-10.33,0-12.11,14.52-12.11,22.71
	c0,7.12,0.27,27.43,16.65,27.43c7.75,0,13-4.36,15.23-6.06V121.94z"/>
<rect x="684.18" y="72.12" class="st0" width="10" height="52.67"/>
<path class="st0" d="M706.32,72.12h11.99c11.68,0,22.14,1.76,22.14,13.74c0,8.17-6.26,10.99-10.99,12.21v0.15
	c7.79,1.45,8.86,6.49,10.15,12.6l2.98,13.97h-10l-1.91-9.92c-1.91-9.62-3.36-13.13-11.22-13.13h-3.13v23.05h-10V72.12z
	 M716.32,96.17h1.99c7.1,0,12.14-1.83,12.14-9.54c0-8.4-5.96-8.93-12.14-8.93h-1.99V96.17z"/>
<polygon class="st0" points="750.97,72.12 781.74,72.12 781.74,78.15 760.97,78.15 760.97,94.34 780.67,94.34 780.67,100.37 
	760.97,100.37 760.97,118.46 782.43,118.46 782.43,124.79 750.97,124.79 "/>
<polygon class="st0" points="798.53,78.15 785.86,78.15 785.86,72.12 821.2,72.12 821.2,78.15 808.53,78.15 808.53,124.79 
	798.53,124.79 "/>
<path class="st0" d="M897.24,120.07c-4.63,2.76-11.4,5.7-19.86,5.7c-19.33,0-27.34-14.25-27.34-32.24
	c0-18.08,5.79-31.17,24.76-31.17c13.36,0,21.91,5.34,21.91,17.1h-12.65c-0.27-3.65-0.71-11.22-9.26-11.22
	c-12.47,0-12.47,16.12-12.47,24.31c0,14.78,2.76,27.34,16.03,27.34c3.47,0,6.23-1.25,7.21-2.49V96.03h-11.04v-7.39h22.71V120.07z"/>
<path class="st0" d="M908.76,72.12h11.98c11.68,0,22.14,1.76,22.14,13.74c0,8.17-6.26,10.99-10.99,12.21v0.15
	c7.79,1.45,8.86,6.49,10.15,12.6l2.98,13.97h-10l-1.91-9.92c-1.91-9.62-3.36-13.13-11.22-13.13h-3.13v23.05h-10V72.12z
	 M918.76,96.17h1.98c7.1,0,12.14-1.83,12.14-9.54c0-8.4-5.95-8.93-12.14-8.93h-1.98V96.17z"/>
<path class="st0" d="M951.36,98.46c0-16.11,6.49-27.17,21.99-27.17c15.42,0,21.99,11.07,21.99,27.17c0,16.11-6.56,27.18-21.99,27.18
	C957.85,125.63,951.36,114.57,951.36,98.46 M973.35,120.6c8.32,0,11.45-8.86,11.45-22.14c0-13.28-3.13-22.14-11.45-22.14
	c-8.32,0-11.45,8.85-11.45,22.14C961.9,111.74,965.02,120.6,973.35,120.6"/>
<path class="st0" d="M1042.81,106.85c0,9.39-1.99,18.78-19.16,18.78c-16.95,0-18.93-9.39-18.93-18.78V72.12h10v34.73
	c0,8.25,1.3,13.74,8.93,13.74c8.09,0,9.16-5.5,9.16-13.74V72.12h10V106.85z"/>
<path class="st0" d="M1054.34,72.12h12.52c12.21,0,20.92,2.44,20.92,14.58c0,13.97-12.6,15.19-20.92,15.19h-2.52v22.9h-10V72.12z
	 M1064.34,96.32h2.52c5.72,0,10.92-1.22,10.92-9.69c0-7.33-3.82-8.93-10.92-8.93h-2.52V96.32z"/>
<path class="st1" d="M318.27,184.09h9.36c9.13,0,15.64,1.83,15.64,10.9c0,10.44-9.42,11.36-15.64,11.36h-1.88v17.13h-7.48V184.09z
	 M325.75,202.18h1.88c4.28,0,8.16-0.91,8.16-7.25c0-5.48-2.86-6.68-8.16-6.68h-1.88V202.18z"/>
<path class="st1" d="M363.87,184.09h7.65l13.7,39.39h-7.94l-3.42-11.19h-13.41l-3.54,11.19h-6.62L363.87,184.09z M361.76,208.12
	h10.85l-5.31-17.41h-0.11L361.76,208.12z"/>
<rect x="397.03" y="184.09" class="st1" width="7.48" height="39.39"/>
<polygon class="st1" points="420.6,184.09 428.77,184.09 444.01,213.32 444.12,213.32 444.12,184.09 450.23,184.09 450.23,223.48 
	442.81,223.48 426.83,192.82 426.71,192.82 426.71,223.48 420.6,223.48 "/>
<polygon class="st1" points="471.63,188.6 462.15,188.6 462.15,184.09 488.58,184.09 488.58,188.6 479.11,188.6 479.11,223.48 
	471.63,223.48 "/>
<rect x="500.39" y="184.09" class="st1" width="7.48" height="39.39"/>
<polygon class="st1" points="523.97,184.09 532.13,184.09 547.37,213.32 547.49,213.32 547.49,184.09 553.6,184.09 553.6,223.48 
	546.17,223.48 530.19,192.82 530.08,192.82 530.08,223.48 523.97,223.48 "/>
<path class="st1" d="M598.4,220.45c-2.97,1.77-7.31,3.65-12.73,3.65c-12.39,0-17.53-9.13-17.53-20.66
	c0-11.59,3.71-19.98,15.87-19.98c8.56,0,14.04,3.43,14.04,10.96h-8.11c-0.17-2.34-0.46-7.19-5.94-7.19
	c-7.99,0-7.99,10.33-7.99,15.59c0,9.48,1.77,17.52,10.28,17.52c2.23,0,4-0.8,4.62-1.6v-13.7h-7.08v-4.74h14.56V220.45z"/>
<polygon class="st1" points="643.31,188.6 633.84,188.6 633.84,184.09 660.27,184.09 660.27,188.6 650.79,188.6 650.79,223.48 
	643.31,223.48 "/>
<path class="st1" d="M669.51,203.78c0-12.05,4.85-20.32,16.44-20.32c11.53,0,16.44,8.28,16.44,20.32c0,12.04-4.91,20.32-16.44,20.32
	C674.36,224.11,669.51,215.83,669.51,203.78 M685.95,220.34c6.22,0,8.56-6.62,8.56-16.56c0-9.93-2.34-16.56-8.56-16.56
	c-6.22,0-8.56,6.62-8.56,16.56C677.39,213.72,679.73,220.34,685.95,220.34"/>
<path class="st1" d="M715.28,203.78c0-12.05,4.85-20.32,16.44-20.32c11.53,0,16.44,8.28,16.44,20.32c0,12.04-4.91,20.32-16.44,20.32
	C720.14,224.11,715.28,215.83,715.28,203.78 M731.73,220.34c6.22,0,8.56-6.62,8.56-16.56c0-9.93-2.34-16.56-8.56-16.56
	c-6.22,0-8.56,6.62-8.56,16.56C723.16,213.72,725.5,220.34,731.73,220.34"/>
<polygon class="st1" points="762.66,184.09 770.14,184.09 770.14,218.74 784.86,218.74 784.86,223.48 762.66,223.48 "/>
<path class="st1" d="M842.28,190.65c-1.37-0.69-6.28-2.69-10.85-2.69c-3.14,0-5.36,1.6-5.36,4.06c0,7.71,19.24,8.16,19.24,20.38
	c0,8.56-6.39,11.7-14.84,11.7c-4.74,0-9.25-1.37-10.67-1.77v-6.97c3.02,1.88,7.42,4.23,11.87,4.23c2.51,0,6.16-1.09,6.16-4.8
	c0-8.91-18.67-8.73-18.67-21.18c0-6.34,4.8-10.16,13.3-10.16c4.17,0,8.34,0.8,9.82,1.09V190.65z"/>
<polygon class="st1" points="865.74,205.04 853.46,184.09 862.08,184.09 870.36,198.53 878.92,184.09 886.12,184.09 873.22,205.04 
	873.22,223.48 865.74,223.48 "/>
<path class="st1" d="M917.97,190.65c-1.37-0.69-6.28-2.69-10.85-2.69c-3.14,0-5.37,1.6-5.37,4.06c0,7.71,19.24,8.16,19.24,20.38
	c0,8.56-6.39,11.7-14.84,11.7c-4.74,0-9.25-1.37-10.68-1.77v-6.97c3.02,1.88,7.42,4.23,11.88,4.23c2.51,0,6.16-1.09,6.16-4.8
	c0-8.91-18.67-8.73-18.67-21.18c0-6.34,4.79-10.16,13.3-10.16c4.17,0,8.34,0.8,9.82,1.09V190.65z"/>
<polygon class="st1" points="939.65,188.6 930.17,188.6 930.17,184.09 956.6,184.09 956.6,188.6 947.13,188.6 947.13,223.48 
	939.65,223.48 "/>
<polygon class="st1" points="968.41,184.09 991.42,184.09 991.42,188.6 975.89,188.6 975.89,200.7 990.62,200.7 990.62,205.21 
	975.89,205.21 975.89,218.74 991.93,218.74 991.93,223.48 968.41,223.48 "/>
<polygon class="st1" points="1005.8,184.09 1015.04,184.09 1026.41,216.23 1026.52,216.23 1037.6,184.09 1047.07,184.09 
	1047.07,223.48 1040.45,223.48 1040.45,189.74 1040.34,189.74 1028.75,223.48 1023.04,223.48 1011.45,190.54 1011.33,190.54 
	1011.33,223.48 1005.8,223.48 "/>
<path class="st1" d="M1084.11,190.65c-1.37-0.69-6.28-2.69-10.85-2.69c-3.14,0-5.37,1.6-5.37,4.06c0,7.71,19.24,8.16,19.24,20.38
	c0,8.56-6.39,11.7-14.84,11.7c-4.74,0-9.25-1.37-10.68-1.77v-6.97c3.03,1.88,7.42,4.23,11.88,4.23c2.51,0,6.16-1.09,6.16-4.8
	c0-8.91-18.67-8.73-18.67-21.18c0-6.34,4.8-10.16,13.3-10.16c4.17,0,8.34,0.8,9.82,1.09V190.65z"/>
<rect x="317.89" y="144.67" class="st0" width="768.81" height="6.43"/>
<g>
	<path class="st0" d="M91.25,224.1c7.73-14.28,19.86-34.6,33.85-50.34c28.95-32.57,82.41-37.69,82.41-37.69
		s-26.06-34.38-31.87-51.82c-3.08-9.25-2.03-15.72,0.86-19.93c0.92-1.17-1.56-1.17-1.56-1.17H80.81c-9.89,0-17.92,8.02-17.92,17.93
		V224.1H91.25z"/>
	<path class="st1" d="M268.29,142.8c-13.54-22.45-37.6-60.63-47.95-71.18c-0.99-1.02-12.28-6.67-14.7-7.34
		c-0.64-0.17-0.93,0.77-0.36,1.43c11.2,12.91,33.17,47.82,45.89,68.91c1.92,3.18,2.8,4.6,4.26,6.97c0,0,21.14,17.73,21.68,17.18
		C277.67,158.24,274.3,152.72,268.29,142.8"/>
	<path class="st1" d="M171.6,223.34v0.76h33.41c12.53-5,27.56-14,37.35-28.01c16.44-23.46,13.84-37.54,4.13-53.94
		c-3.64-6.17-1.06-1.84-4.03-7l-30.14-27.24c0,0-3.24-2.51-0.1,1.76c4.83,6.56,12.1,16.84,17.98,26.78
		c9.71,16.4,12.31,30.49-4.13,53.95C209.7,213.83,171.6,223.34,171.6,223.34"/>
</g>
</svg>
