<svg xmlns="http://www.w3.org/2000/svg" version="1.2" viewBox="0 0 150 20">
  <path fill="#009aa6" d="M15 19.5 0 10.4V0l15 9.2z"/>
  <path fill="#b1dce0" d="m15 19.7 15-9.3V0L15 9.2z"/>
  <path fill="#009aa6" d="m63 1.4.4.4q.2.3.3.5.2.2.3.5.1.2.2.5.3 1 .3 2.4v8.6q0 1.4-.3 2.4-.4 1.1-1.2 1.9-.2.2-.5.3-.2.2-.5.3l-.6.2q-.2.1-.5.2-1.4.4-3.3.4H42V.1h15.6q.4-.1.8 0h.8q.5.1.9.1l.8.2.6.2q.2.1.5.2t.5.3.5.3zm-4.4 6.3q0-.7-.1-1.3l-.3-.6q-.1-.3-.4-.5-.2-.2-.4-.3-.3-.2-.6-.2-.7-.2-1.8-.2h-7.2v10.8H55q1.1 0 1.8-.1.3-.1.6-.3.2-.1.4-.3.3-.2.4-.5.2-.3.3-.6.1-.6.1-1.3zM74.1.1V20h-6V.1zm2.8-.1h22.5v4.6h-8.5V20H85V4.6h-8.1zm73.2 0v19.9H144L133.3 8.5v11.4h-5.9V0h5.9L144 11.1V0zm-27.6 1.5q1.5 1.4 1.5 4.3v8.4q0 2.8-1.5 4.2-1.4 1.5-5.3 1.5h-8.9q-3.4 0-5.1-1.3-1.8-1.3-1.8-4.4V5.8q0-3 1.7-4.3 1.6-1.5 5.2-1.5h8.9q3.9 0 5.3 1.5zm-15.2 3v10.9h10.8V4.5z"/>
</svg>
