<?xml version="1.0" encoding="utf-8"?>
<!-- Generator: Adobe Illustrator 26.1.0, SVG Export Plug-In . SVG Version: 6.00 Build 0)  -->
<svg version="1.1" id="Vrstva_1" xmlns="http://www.w3.org/2000/svg" xmlns:xlink="http://www.w3.org/1999/xlink" x="0px" y="0px"
	 viewBox="0 0 1500 630" style="enable-background:new 0 0 1500 630;" xml:space="preserve">
<style type="text/css">
	.st0{fill:#252525;}
	.st1{fill:#DB0000;}
</style>
<g>
	<polygon class="st0" points="637.9,356.1 775.9,356.1 775.9,282.1 637.9,282.1 637.9,246 789.8,246 789.8,172 540.4,172 
		540.4,466.7 793.5,466.7 793.5,392.7 637.9,392.7 	"/>
	<polygon class="st0" points="1116.9,232.9 1116.9,172 854.5,172 854.5,246.8 987,246.8 849.5,405.8 849.5,466.7 1119.9,466.7 
		1119.9,391.9 979.4,391.9 	"/>
	<path class="st0" d="M1380.2,172h-100.1l-124.5,294.8h100.1l15.1-41.6h110.6l14.7,41.6H1500L1380.2,172z M1296,355.3l31.1-86.2
		l30.3,86.2H1296z"/>
	<path class="st1" d="M332.5,63.1V0c-4.3-0.2-8.5-0.3-12.8-0.3C143.1-0.4,0,142.8,0,319.3h63.1c0-141.5,115.1-256.6,256.6-256.6
		C324,62.7,328.3,62.9,332.5,63.1z"/>
	<polygon class="st0" points="466.8,466.7 466.8,98.4 378.5,10.1 378.5,323.3 262,172 180.4,172 180.4,540.3 269.2,629.1 
		269.2,316.2 385.2,466.7 	"/>
</g>
</svg>
