<?xml version="1.0" encoding="UTF-8"?><svg id="Vrstva_1" xmlns="http://www.w3.org/2000/svg" viewBox="0 0 279.52 51.61"><defs><style>.cls-1{fill:#2a6e3c;}.cls-1,.cls-2{stroke-width:0px;}.cls-2{fill:#3b3d3e;}</style></defs><path class="cls-1" d="M0,11.59h6.42l8.42,18.36,8.48-18.36h6.18l-13.89,28.31h-1.82L0,11.59Z"/><path class="cls-1" d="M29.19,25.25c0-8.47,6.3-14.3,14.48-14.3s14.42,5.65,14.42,14.83v14.07h-5.89v-13.89c0-6.06-3.71-9.36-8.59-9.36s-8.48,3.47-8.48,8.59,3.35,9.06,9.77,9.06h3.65l-1.77,5.59h-2.3c-9.3,0-15.3-6.42-15.3-14.6Z"/><path class="cls-1" d="M75.32,10.95c7.47,0,12.54,5.06,12.54,13.07v15.83h-5.89v-15.83c0-4.59-2.65-7.42-6.65-7.42s-6.65,2.83-6.65,7.42v15.83h-5.89v-15.83c0-8,5.06-13.07,12.54-13.07Z"/><path class="cls-2" d="M92.56,25.78c0-9.18,6.12-14.83,14.42-14.83s14.48,5.83,14.48,14.3-6,14.6-15.3,14.6h-2.29l-1.77-5.59h3.65c6.42,0,9.77-4.18,9.77-9.06s-3.77-8.59-8.48-8.59-8.59,3.3-8.59,9.36v25.66h-5.89v-25.84Z"/><path class="cls-2" d="M135.11,11.59h4.06v5.59h-3.41c-2.65,0-4.47,1.47-4.47,4.88v17.77h-5.88v-18.19c0-6.12,3.47-10.06,9.71-10.06Z"/><path class="cls-2" d="M139.88,25.72c0-8.3,6.06-14.77,14.89-14.77s14.89,6.47,14.89,14.77-6.06,14.77-14.89,14.77-14.89-6.42-14.89-14.77ZM154.76,34.78c5.47,0,8.89-4.18,8.89-9.06s-3.41-9.12-8.89-9.12-8.95,4.24-8.95,9.12,3.47,9.06,8.95,9.06Z"/><path class="cls-2" d="M201.31,0v25.66c0,9.18-6.12,14.83-14.42,14.83s-14.48-5.83-14.48-14.3,6-14.6,15.3-14.6h2.3l1.77,5.59h-3.65c-6.42,0-9.77,4.18-9.77,9.06s3.77,8.59,8.47,8.59,8.59-3.29,8.59-9.36V0h5.89Z"/><path class="cls-2" d="M206.02,11.59h5.88v15.83c0,4.59,2.59,7.42,6.65,7.42s6.65-2.82,6.65-7.42v-15.83h5.89v15.83c0,8-5.06,13.07-12.54,13.07s-12.54-5.06-12.54-13.07v-15.83Z"/><path class="cls-2" d="M242.33,26.37v13.48h-5.83V0h5.83v24.6l11.3-13.01h7.12l-12.01,13.71,12.42,14.54h-7.3l-11.54-13.48Z"/><path class="cls-2" d="M264.16,29.49V5.18h5.89v6.41h8.59v5.59h-8.59v11.59c0,3.83,1.88,5.47,5.3,5.47h4.18l-1.71,5.59h-3.35c-6.77,0-10.3-4-10.3-10.36Z"/></svg>