<svg id="Vrstva_1" data-name="Vrstva 1" xmlns="http://www.w3.org/2000/svg" viewBox="0 0 826.33 337.09">
  <defs>
    <style>
      .cls-1 {
        fill: none;
      }

      .cls-1, .cls-2, .cls-3, .cls-4, .cls-5 {
        fill-rule: evenodd;
      }

      .cls-2 {
        fill: none;
      }

      .cls-4 {
        fill: #e30613;
      }

      .cls-5 {
        fill: #1d1d1b;
      }
    </style>
  </defs>
  <g>
    <path class="cls-1" d="M790.61,294.93l0,0a45.42,45.42,0,0,0-58.85-2.4,45.34,45.34,0,0,1,41-8c4,1.14,5.46-.4,6.11-3.6,2.13-10.68,5-21.32,6-32.12a168.1,168.1,0,0,0-13.18-83.07c-6.17-14.21-14.6-26.9-26.55-37-17.16-14.44-37.55-21.52-59.34-24.08-16.63-2-33.49-2-47.75-2.7-20.25.69-38,.31-55.6,2.17-18.73,2-23.36,8.71-24.9,24-1,9.78-1.31,19.66-1.36,29.49-.13,27.4.06,54.8.1,82.2,0,18,0,36,.09,54.08a7.51,7.51,0,0,0,.54,2.51,45.29,45.29,0,0,0-16.18-10.57A44.57,44.57,0,0,0,528.5,283c-1.32-.11-2.65-.17-4-.17V375c1.34,0,2.68-.06,4-.18A45.26,45.26,0,0,0,555.23,363a46.28,46.28,0,0,0,9.2-11.65,3.33,3.33,0,0,0,2.08,3c5.49,2.75,11,6.31,16.81,7.41,8.39,1.57,17.14,1.68,25.73,1.63,22.84-.13,45.68-.43,68.51-1.16a112,112,0,0,0,37.54-8.13c2.86-1.13,4.21-1.94,4.62-2.92a46.26,46.26,0,0,0,9.66,12.17A45.34,45.34,0,0,0,759.74,375a46.15,46.15,0,0,0,30.87-80ZM667.94,309.48c-13.92,1.62-28.08,1.25-42.13,1.53-4.44.09-6.86-3.06-6.82-7.37.16-19.23.31-38.46.34-57.69q.09-37.51,0-75c0-3.47-.22-6.94-.33-10.41-.16-5.2,2.07-7.55,7.29-7.58,5.58,0,11.17,0,19.46,0,13.07-.62,28.55.57,42.85,8.08a57.55,57.55,0,0,1,24.6,24.81c14.33,27.62,14.49,56.34,4.22,85.08C709.19,293.83,691.86,306.68,667.94,309.48Z" transform="translate(0 -67.44)"/>
    <path class="cls-1" d="M528.67,282.35v91.8c-1.31.12-2.65.18-4,.18a45.21,45.21,0,0,1-21.47-5.39,45.83,45.83,0,0,1-12.15-9.49l.33.57c-9.22,5.33-19.17,4.31-26.52-4a346.11,346.11,0,0,1-23.35-29.54c-20.49-28.92-40.59-58.12-60.83-87.22-2.42-3.48-4.82-7-7.15-10.5a8.56,8.56,0,0,0-13.17-1.68,4.83,4.83,0,0,0-.95,3.25c0,27,.28,54,.16,81-.05,10.57-.23,21.21-1.58,31.66-1.26,9.71-8.12,14.89-17.21,18.49-14.68,5.83-24.39-1.36-32.74-11.42-2.91-3.5-4.11-9.16-4.42-13.94-.85-13.3-1.06-26.66-1.11-40-.18-41.71-.37-83.43-.13-125.14.09-16,.81-32.11,2.23-48.07.83-9.39,6.9-15.58,16.27-18,12.68-3.28,23.92-2.15,32.58,9.31,11.59,15.36,23.63,30.38,35.36,45.63q23.55,30.61,46.93,61.38c1.58,2.07,3.14,3.76,6,2.09s7.34-.94,7.23-6.79c-.52-25.61-.63-51.22-.65-76.83a94.64,94.64,0,0,1,1.54-16.27c1.87-10.91,8.65-17.34,19.86-19.72,10.47-2.22,20.26-1.52,28.45,6.29,6.15,5.86,7.61,13.86,8.12,21.59.85,13.13.62,26.35.64,39.52.06,36.25-.08,72.5.12,108.74,0,.39,0,.77,0,1.13s0,.55-.06.82,0,.52-.09.77,0,.26-.07.38a2.57,2.57,0,0,1-.08.4c0,.15-.06.29-.1.42s-.15.53-.24.78a6.11,6.11,0,0,1-.26.64c-.09.2-.18.4-.28.58s-.28.48-.44.71a45.26,45.26,0,0,1,14.68-4.06c1.51-.15,3-.23,4.6-.23C526,282.18,527.35,282.24,528.67,282.35Z" transform="translate(0 -67.44)"/>
    <path class="cls-1" d="M285.06,328.16a40.32,40.32,0,1,1-40.31-40.32A40.32,40.32,0,0,1,285.06,328.16Z" transform="translate(0 -67.44)"/>
    <path class="cls-1" d="M564.83,325.21a40.32,40.32,0,1,1-40.32-40.32A40.32,40.32,0,0,1,564.83,325.21Z" transform="translate(0 -67.44)"/>
    <path class="cls-1" d="M797,328.16a40.32,40.32,0,1,1-40.32-40.32A40.32,40.32,0,0,1,797,328.16Z" transform="translate(0 -67.44)"/>
    <path class="cls-1" d="M270.37,131.08c-4.34,12.95-9.59,25.61-14.82,38.24-11,26.43-22.18,52.75-33.29,79.11q-16.24,38.51-32.53,77c-3.86,9.14-7.36,18.47-11.92,27.27-4.69,9.05-12.85,13.1-23.16,12.59-9.15-.45-16.86-3.38-20.92-12.27-7.36-16.13-14.51-32.37-21.82-48.52C98.62,275.15,85.14,245.9,72,216.5q-17.16-38.34-33.71-77c-1.84-4.29-2.15-9.24-3.18-13.9C35.71,110,43.42,101,58.83,98.88c2.78-.38,5.57-.69,8.36-.79,11-.41,18.36,5.24,22.67,14.84,9,20.15,17.83,40.42,26.63,60.67,10.48,24.12,21,48.22,31.2,72.46,2.3,5.47,6.55,3.39,10.24,4,3.23.5,4.24-1.64,5.21-4.13,10.1-26.13,20.16-52.29,30.45-78.35,6.79-17.22,13.55-34.45,21-51.38,8.84-20,32.11-25.42,48.32-11.33C270.89,111.76,273.7,121.1,270.37,131.08Z" transform="translate(0 -67.44)"/>
    <g>
      <g>
        <path class="cls-2" d="M0,404.53V67.44H826.33V404.53ZM436.57,201.06a25.13,25.13,0,0,1-2.81-2.48c-13.36-17.45-26.59-35-40.07-52.38Q376.56,124.12,359,102.41c-14.85-18.29-42.9-12.75-54.43-3.15-8.19,6.81-11.93,16-12.6,26.31-.86,13.14-1.25,26.34-1.28,39.51-.11,46.71,0,93.41,0,140.12,0,3.64,0,7.29,0,10.93-17.6-33.38-41.76-42-75.76-21.78,6.59-15.39,12.64-29.42,18.62-43.49,8.06-19,16.15-37.91,24.07-56.93q10.13-24.33,19.87-48.81c3.23-8.18,4.52-16.77,2.1-25.41-4.25-15.16-14.45-24.3-29.74-27.3-18.14-3.57-34.08.1-44.15,17.2-5.81,9.84-10.17,20.61-14.44,31.26-11.46,28.54-22.52,57.25-33.79,85.88-.53,1.37-1.57,2.54-2.88,4.6-3.06-6.82-5.73-12.57-8.25-18.39-13.9-32.15-27.51-64.42-41.85-96.36A50.77,50.77,0,0,0,91.36,99c-10.63-8.91-23.63-8-36.42-5.4-10.42,2.09-18.45,7.8-23.44,17.13-5.45,10.19-6.84,21.32-3.1,32.19,4.37,12.7,9.77,25.08,15.24,37.37,12.43,28,25.22,55.76,37.81,83.64q12.15,26.93,24.14,53.91c4.48,10.11,8.45,20.46,13.25,30.4,3.12,6.47,6.5,13.17,11.26,18.39,6.15,6.73,15,9,24.08,9,14.34,0,26.61-4.44,33.94-17.8,2.9-5.3,5.22-10.91,7.77-16.4,1.38-2.95,2.68-5.94,4-8.92,7.34,24.8,16.78,37.06,34.42,40.51,28.34,5.52,46.89-6.9,56.25-34.41,2,6.06,2.74,11.87,5.66,16.18,12.82,19,31.61,27.77,54,16.1,9.8-5.12,17.2-12.63,18.78-24.14a191.72,191.72,0,0,0,2-24.38c.18-20.91-.14-41.82-.25-62.72,0-3.54,0-7.07,0-10.6l1.48-.29c.85,1,1.79,1.89,2.53,2.94,5.51,7.77,11,15.53,16.46,23.36,15.25,22,30.3,44.23,45.76,66.12,5.92,8.37,12.15,16.69,19.31,24,12.13,12.37,27.7,13.61,42.83,4.9,1.73-1,4.55-1.55,6.27-.86,17.18,6.95,33.2,5.07,48-5.91,2.11-1.55,3.27-1.31,5,.16,9.9,8.29,21.77,11.36,34.25,11.52q36.3.5,72.61,0c20.11-.31,39.85-3.37,58.49-11.36,4.05-1.74,6.94-1.18,10.36,1.26,15.76,11.24,39.87,10.26,54.27-2a46.44,46.44,0,0,0,2.73-67.95c-2.46-2.49-2.58-4.6-1.81-7.67,2.34-9.4,5.16-18.78,6.34-28.35,5-40.32-.31-78.95-21.13-114.52-9.33-16-21.76-29.07-38.4-37.7-21.61-11.21-44.8-16.41-69-17-16.64-.45-33.31-.41-50,0-14,.33-28.22.56-42.11,2.51C559.89,94.15,549,103,546.82,119a289.17,289.17,0,0,0-2.47,37.09c-.24,36.51,0,73,.13,109.55,0,6.76,0,13.53,0,19.93-7.72-1-14.53-2.35-21.39-2.64-3.71-.16-4.71-1.07-4.65-4.62.16-10.77,0-21.54,0-32.31,0-33.22.15-66.44-.28-99.66-.12-9.91-1.63-19.87-3.19-29.69a27.87,27.87,0,0,0-10.41-17.6c-10.75-8.72-22.93-10.5-36-8.15-10.85,2-19.74,7.06-25.71,16.79-5.15,8.39-5.86,17.86-6.19,27.11-.61,17.4-.13,34.85-.11,52.28C436.58,191.4,436.57,195.7,436.57,201.06Z" transform="translate(0 -67.44)"/>
        <path class="cls-3" d="M199.91,332.44c-1.34,3-2.64,6-4,8.92-2.55,5.49-4.87,11.1-7.77,16.4-7.33,13.36-19.6,17.76-33.94,17.8-9.09,0-17.93-2.23-24.08-9-4.76-5.22-8.14-11.92-11.26-18.39-4.8-9.94-8.77-20.29-13.25-30.4q-12-27-24.14-53.91C68.86,236,56.07,208.22,43.64,180.26,38.17,168,32.77,155.59,28.4,142.89c-3.74-10.87-2.35-22,3.1-32.19,5-9.33,13-15,23.44-17.13C67.73,91,80.73,90.06,91.36,99a50.77,50.77,0,0,1,13.15,17.63c14.34,31.94,28,64.21,41.85,96.36,2.52,5.82,5.19,11.57,8.25,18.39,1.31-2.06,2.35-3.23,2.88-4.6,11.27-28.63,22.33-57.34,33.79-85.88,4.27-10.65,8.63-21.42,14.44-31.26,10.07-17.1,26-20.77,44.15-17.2,15.29,3,25.49,12.14,29.74,27.3,2.42,8.64,1.13,17.23-2.1,25.41q-9.69,24.51-19.87,48.81c-7.92,19-16,38-24.07,56.93-6,14.07-12,28.1-18.62,43.49m75.76,21.78c0-3.64,0-7.29,0-10.93,0-46.71-.16-93.41,0-140.12,0-13.17.42-26.37,1.28-39.51.67-10.26,4.41-19.5,12.6-26.31,11.53-9.6,39.58-15.14,54.43,3.15q17.61,21.71,34.72,43.79c13.48,17.37,26.71,34.93,40.07,52.38a25.13,25.13,0,0,0,2.81,2.48c0-5.36,0-9.66,0-14,0-17.43-.5-34.88.11-52.28.33-9.25,1-18.72,6.19-27.11,6-9.73,14.86-14.84,25.71-16.79,13.08-2.35,25.26-.57,36,8.15A27.87,27.87,0,0,1,515,116.67c1.56,9.82,3.07,19.78,3.19,29.69.43,33.22.24,66.44.28,99.66,0,10.77.13,21.54,0,32.31-.06,3.55.94,4.46,4.65,4.62,6.86.29,13.67,1.63,21.39,2.64,0-6.4,0-13.17,0-19.93-.08-36.52-.37-73-.13-109.55A289.17,289.17,0,0,1,546.82,119C549,103,559.89,94.15,575.13,92c13.89-2,28.06-2.18,42.11-2.51,16.64-.4,33.31-.44,50,0,24.18.64,47.37,5.84,69,17,16.64,8.63,29.07,21.74,38.4,37.7,20.82,35.57,26.11,74.2,21.13,114.52-1.18,9.57-4,19-6.34,28.35-.77,3.07-.65,5.18,1.81,7.67a46.44,46.44,0,0,1-2.73,67.95c-14.4,12.26-38.51,13.24-54.27,2-3.42-2.44-6.31-3-10.36-1.26-18.64,8-38.38,11.05-58.49,11.36q-36.3.54-72.61,0c-12.48-.16-24.35-3.23-34.25-11.52-1.76-1.47-2.92-1.71-5-.16-14.85,11-30.87,12.86-48,5.91-1.72-.69-4.54-.13-6.27.86-15.13,8.71-30.7,7.47-42.83-4.9-7.16-7.29-13.39-15.61-19.31-24C421.51,319.22,406.46,297,391.21,275c-5.42-7.83-10.95-15.59-16.46-23.36-.74-1-1.68-2-2.53-2.94l-1.48.29c0,3.53,0,7.06,0,10.6.11,20.9.43,41.81.25,62.72a191.72,191.72,0,0,1-2,24.38c-1.58,11.51-9,19-18.78,24.14-22.36,11.67-41.15,2.87-54-16.1-2.92-4.31-3.62-10.12-5.66-16.18M638,101.23c-20.25.69-38,.31-55.6,2.17-18.73,2-23.36,8.71-24.9,23.95-1,9.78-1.31,19.66-1.36,29.49-.13,27.4.06,54.8.1,82.2,0,18,0,36,.09,54.08a8.72,8.72,0,0,0,1.89,4.86c12.1,15.3,14.57,31.92,6.83,49.86-1.14,2.65-.79,4.62,1.46,5.75,5.49,2.75,11,6.31,16.81,7.41,8.39,1.57,17.14,1.68,25.73,1.63,22.84-.13,45.68-.43,68.51-1.16a112,112,0,0,0,37.54-8.13c6-2.37,5.34-3.32,3.46-7.46a43.61,43.61,0,0,1-.38-36.18,45.16,45.16,0,0,1,54.58-25.93c4,1.14,5.46-.4,6.11-3.6,2.13-10.68,5-21.32,6-32.12A168.1,168.1,0,0,0,771.64,165c-6.17-14.21-14.6-26.9-26.55-37-17.16-14.44-37.55-21.52-59.34-24.08C669.12,102,652.26,102,638,101.23ZM491.22,359.92c-2.31-4.08-4.63-7.8-6.59-11.69-10.06-20.06-2.49-47.16,16.61-58.4,4.26-2.51,5.66-5.25,5.64-10.09-.2-36.24-.06-72.49-.12-108.74,0-13.17.21-26.39-.64-39.52-.51-7.73-2-15.73-8.12-21.59-8.19-7.8-18-8.51-28.45-6.29-11.21,2.38-18,8.81-19.86,19.72a94.64,94.64,0,0,0-1.54,16.27c0,25.61.13,51.22.65,76.83.11,5.85-4.34,5.08-7.23,6.79s-4.4,0-6-2.09q-23.43-30.72-46.93-61.38c-11.73-15.25-23.77-30.27-35.36-45.63-8.66-11.46-19.9-12.59-32.58-9.31-9.37,2.42-15.44,8.61-16.27,18-1.42,16-2.14,32-2.23,48.07-.24,41.71-.05,83.43.13,125.14,0,13.33.26,26.69,1.11,40,.31,4.78,1.51,10.44,4.42,13.94,8.35,10.06,18.06,17.25,32.74,11.42,9.09-3.6,15.95-8.78,17.21-18.49,1.35-10.45,1.53-21.09,1.58-31.66.12-27-.12-54-.16-81a4.83,4.83,0,0,1,.95-3.25,8.56,8.56,0,0,1,13.17,1.68c2.33,3.53,4.73,7,7.15,10.5,20.24,29.1,40.34,58.3,60.83,87.22a346.11,346.11,0,0,0,23.35,29.54C472.05,364.23,482,365.25,491.22,359.92Zm-453-229.36c1,4.53,1.31,9.35,3.1,13.53Q57.42,181.7,74.13,219c12.81,28.62,25.93,57.1,38.87,85.66,7.12,15.73,14.08,31.54,21.25,47.25,3.95,8.65,11.46,11.51,20.37,11.94,10,.5,18-3.44,22.55-12.26,4.44-8.56,7.85-17.65,11.61-26.55q15.87-37.45,31.67-74.95c10.82-25.67,21.73-51.3,32.41-77,5.1-12.3,10.21-24.63,14.43-37.24,3.25-9.71.51-18.81-7.25-25.56-15.78-13.72-38.44-8.49-47.05,11-7.26,16.48-13.85,33.26-20.46,50-10,25.38-19.81,50.85-29.65,76.29-.94,2.43-1.92,4.51-5.07,4-3.59-.56-7.73,1.47-10-3.86-9.93-23.6-20.17-47.07-30.38-70.55-8.57-19.72-17.13-39.46-25.93-59.08-4.2-9.35-11.34-14.85-22.07-14.45-2.72.1-5.44.4-8.14.77C46.31,106.58,38.81,115.31,38.21,130.56ZM555.79,325.11c-2,13-6.87,24.6-19.9,29.14-12,4.18-24.07,2-35.35-6.07,5.77,10.31,22.24,15.63,35.14,10.67C549.38,353.58,559.14,337.82,555.79,325.11Zm234.9-1.17c-.19,13.62-7,23.41-18.65,28.76-11.5,5.26-23.26,3.13-34.69-4.22,4,8.42,19.86,14.48,33.55,9.47C785.25,352.71,794.93,335.46,790.69,323.94Z" transform="translate(0 -67.44)"/>
        <path class="cls-2" d="M638,101.23c14.26.74,31.12.74,47.75,2.7,21.79,2.56,42.18,9.64,59.34,24.08,11.95,10.07,20.38,22.76,26.55,37a168.1,168.1,0,0,1,13.18,83.07c-1,10.8-3.82,21.44-6,32.12-.65,3.2-2.13,4.74-6.11,3.6a45.16,45.16,0,0,0-54.58,25.93,43.61,43.61,0,0,0,.38,36.18c1.88,4.14,2.54,5.09-3.46,7.46a112,112,0,0,1-37.54,8.13c-22.83.73-45.67,1-68.51,1.16-8.59.05-17.34-.06-25.73-1.63-5.86-1.1-11.32-4.66-16.81-7.41-2.25-1.13-2.6-3.1-1.46-5.75,7.74-17.94,5.27-34.56-6.83-49.86a8.72,8.72,0,0,1-1.89-4.86c-.13-18-.07-36.06-.09-54.08,0-27.4-.23-54.8-.1-82.2.05-9.83.36-19.71,1.36-29.49,1.54-15.24,6.17-22,24.9-23.95C600,101.54,617.75,101.92,638,101.23Zm7.72,51c-8.29,0-13.88,0-19.46,0-5.22,0-7.45,2.38-7.29,7.58.11,3.47.32,6.94.33,10.41q.06,37.51,0,75c0,19.23-.18,38.46-.34,57.69,0,4.31,2.38,7.46,6.82,7.37,14.05-.28,28.21.09,42.13-1.53,23.92-2.8,41.25-15.65,49.45-38.58,10.27-28.74,10.11-57.46-4.22-85.08a57.55,57.55,0,0,0-24.6-24.81C674.27,152.76,658.79,151.57,645.72,152.19Z" transform="translate(0 -67.44)"/>
        <path class="cls-2" d="M491.22,359.92c-9.22,5.33-19.17,4.31-26.52-4a346.11,346.11,0,0,1-23.35-29.54c-20.49-28.92-40.59-58.12-60.83-87.22-2.42-3.48-4.82-7-7.15-10.5A8.56,8.56,0,0,0,360.2,227a4.83,4.83,0,0,0-.95,3.25c0,27,.28,54,.16,81-.05,10.57-.23,21.21-1.58,31.66-1.26,9.71-8.12,14.89-17.21,18.49-14.68,5.83-24.39-1.36-32.74-11.42-2.91-3.5-4.11-9.16-4.42-13.94-.85-13.3-1.06-26.66-1.11-40-.18-41.71-.37-83.43-.13-125.14.09-16,.81-32.11,2.23-48.07.83-9.39,6.9-15.58,16.27-18,12.68-3.28,23.92-2.15,32.58,9.31,11.59,15.36,23.63,30.38,35.36,45.63q23.55,30.62,46.93,61.38c1.58,2.07,3.14,3.76,6,2.09s7.34-.94,7.23-6.79c-.52-25.61-.63-51.22-.65-76.83a94.64,94.64,0,0,1,1.54-16.27c1.87-10.91,8.65-17.34,19.86-19.72,10.47-2.22,20.26-1.51,28.45,6.29,6.15,5.86,7.61,13.86,8.12,21.59.85,13.13.62,26.35.64,39.52.06,36.25-.08,72.5.12,108.74,0,4.84-1.38,7.58-5.64,10.09-19.1,11.24-26.67,38.34-16.61,58.4C486.59,352.12,488.91,355.84,491.22,359.92Z" transform="translate(0 -67.44)"/>
        <path class="cls-2" d="M38.21,130.56c.6-15.25,8.1-24,23.11-26.06,2.7-.37,5.42-.67,8.14-.77,10.73-.4,17.87,5.1,22.07,14.45,8.8,19.62,17.36,39.36,25.93,59.08,10.21,23.48,20.45,47,30.38,70.55,2.24,5.33,6.38,3.3,10,3.86,3.15.48,4.13-1.6,5.07-4,9.84-25.44,19.63-50.91,29.65-76.29,6.61-16.76,13.2-33.54,20.46-50,8.61-19.53,31.27-24.76,47.05-11,7.76,6.75,10.5,15.85,7.25,25.56-4.22,12.61-9.33,24.94-14.43,37.24-10.68,25.73-21.59,51.36-32.41,77q-15.82,37.49-31.67,74.95c-3.76,8.9-7.17,18-11.61,26.55-4.57,8.82-12.51,12.76-22.55,12.26-8.91-.43-16.42-3.29-20.37-11.94-7.17-15.71-14.13-31.52-21.25-47.25-12.94-28.56-26.06-57-38.87-85.66Q57.42,181.7,41.31,144.09C39.52,139.91,39.21,135.09,38.21,130.56Z" transform="translate(0 -67.44)"/>
        <path class="cls-2" d="M276.64,325.21c3.93,9.94-3.5,27.83-19,34.18-14.12,5.8-31.57-.14-37.87-13.34,10.05,10,22,13.56,35.21,8.93C268.58,350.22,275.45,339.63,276.64,325.21Z" transform="translate(0 -67.44)"/>
        <path class="cls-2" d="M555.79,325.11c3.35,12.71-6.41,28.47-20.11,33.74-12.9,5-29.37-.36-35.14-10.67,11.28,8.05,23.35,10.25,35.35,6.07C548.92,349.71,553.74,338.08,555.79,325.11Z" transform="translate(0 -67.44)"/>
        <path class="cls-2" d="M790.69,323.94c4.24,11.52-5.44,28.77-19.79,34-13.69,5-29.55-1.05-33.55-9.47,11.43,7.35,23.19,9.48,34.69,4.22C783.69,347.35,790.5,337.56,790.69,323.94Z" transform="translate(0 -67.44)"/>
        <path class="cls-3" d="M645.72,152.19c13.07-.62,28.55.57,42.85,8.08a57.55,57.55,0,0,1,24.6,24.81c14.33,27.62,14.49,56.34,4.22,85.08-8.2,22.93-25.53,35.78-49.45,38.58-13.92,1.62-28.08,1.25-42.13,1.53-4.44.09-6.86-3.06-6.82-7.37.16-19.23.31-38.46.34-57.69q.09-37.52,0-75c0-3.47-.22-6.94-.33-10.41-.16-5.2,2.07-7.55,7.29-7.58C631.84,152.16,637.43,152.19,645.72,152.19ZM631,231.44h.08q0,30.44,0,60.88c0,2.34-.62,5.12,3.36,4.89,11.9-.7,24-.36,35.66-2.2,15.31-2.42,27.15-11.24,33.92-25.3,10.63-22.06,11.2-45.2,3.22-68-6.8-19.4-20.35-32.57-41.61-35.3-9.68-1.24-19.58-.83-29.36-1.37-3.89-.22-5.38,1-5.35,5.1C631.12,190.57,631,211,631,231.44Z" transform="translate(0 -67.44)"/>
        <path class="cls-2" d="M631,231.44c0-20.44.08-40.87-.07-61.3,0-4.06,1.46-5.32,5.35-5.1,9.78.54,19.68.13,29.36,1.37,21.26,2.73,34.81,15.9,41.61,35.3,8,22.8,7.41,45.94-3.22,68-6.77,14.06-18.61,22.88-33.92,25.3-11.71,1.84-23.76,1.5-35.66,2.2-4,.23-3.36-2.55-3.36-4.89q0-30.45,0-60.88Z" transform="translate(0 -67.44)"/>
      </g>
      <g>
        <path class="cls-4" d="M278.61,324.78c0,18.13-15.16,32.81-33.86,32.81s-33.87-14.68-33.87-32.81S226,292,244.75,292,278.61,306.65,278.61,324.78Z" transform="translate(0 -67.44)"/>
        <path class="cls-5" d="M247.83,282.08a46.08,46.08,0,1,0,45.7,46.07A45.88,45.88,0,0,0,247.83,282.08Zm0,78a31.92,31.92,0,1,1,31.65-31.92A31.77,31.77,0,0,1,247.83,360.07Z" transform="translate(0 -67.44)"/>
      </g>
      <g>
        <path class="cls-4" d="M555.29,324.78c0,18.12-15.16,32.81-33.86,32.81s-33.87-14.69-33.87-32.81S502.73,292,521.43,292,555.29,306.65,555.29,324.78Z" transform="translate(0 -67.44)"/>
        <path class="cls-5" d="M524.51,282.08a46.08,46.08,0,1,0,45.7,46.07A45.88,45.88,0,0,0,524.51,282.08Zm0,78a31.92,31.92,0,1,1,31.66-31.92A31.78,31.78,0,0,1,524.51,360.07Z" transform="translate(0 -67.44)"/>
      </g>
      <g>
        <path class="cls-4" d="M790.52,324.77c0,18.13-15.16,32.82-33.86,32.82s-33.87-14.69-33.87-32.82S738,292,756.66,292,790.52,306.65,790.52,324.77Z" transform="translate(0 -67.44)"/>
        <path class="cls-5" d="M759.74,282.08a46.08,46.08,0,1,0,45.7,46.07A45.88,45.88,0,0,0,759.74,282.08Zm0,78a31.92,31.92,0,1,1,31.66-31.92A31.78,31.78,0,0,1,759.74,360.07Z" transform="translate(0 -67.44)"/>
      </g>
    </g>
  </g>
</svg>
